<?xml version="1.0" standalone="no"?>
<!DOCTYPE svg PUBLIC "-//W3C//DTD SVG 20010904//EN"
 "http://www.w3.org/TR/2001/REC-SVG-20010904/DTD/svg10.dtd">
<svg version="1.0" xmlns="http://www.w3.org/2000/svg"
 width="3348.000000pt" height="1818.000000pt" viewBox="0 0 3348.000000 1818.000000"
 preserveAspectRatio="xMidYMid meet">

<g transform="translate(0.000000,1818.000000) scale(0.100000,-0.100000)"
fill="#000000" stroke="none">
<path d="M16483 18165 c-35 -25 -43 -91 -54 -465 -5 -195 -18 -491 -28 -658
-15 -256 -20 -305 -34 -320 -15 -15 -56 -18 -340 -25 -177 -4 -369 -6 -427 -5
-99 3 -105 4 -108 25 -2 12 19 81 47 155 51 137 134 401 177 567 16 63 24 120
24 178 0 77 -2 86 -26 110 -31 31 -74 28 -156 -10 -56 -26 -302 -196 -558
-385 -459 -340 -569 -453 -570 -581 0 -89 73 -164 212 -215 36 -14 185 -59
331 -100 308 -87 449 -137 603 -213 121 -59 210 -124 261 -191 39 -51 42 -86
10 -106 -12 -9 -115 -34 -227 -56 -639 -127 -1148 -265 -1790 -483 -397 -135
-488 -170 -855 -335 -221 -99 -357 -173 -479 -260 -189 -135 -280 -253 -280
-362 0 -143 63 -208 257 -264 242 -70 695 -58 1149 30 812 157 1654 559 2092
1000 148 149 276 333 314 454 56 172 22 360 -87 482 -158 178 -450 312 -1006
464 -213 58 -339 109 -349 142 -22 67 63 149 469 454 121 92 287 218 370 282
82 64 157 116 166 116 33 0 44 -27 31 -78 -34 -128 -139 -467 -177 -571 -72
-195 -99 -248 -139 -272 -46 -27 -47 -58 -5 -93 36 -30 37 -30 103 -12 36 11
157 18 411 26 455 13 538 13 553 -2 8 -8 9 -113 5 -402 -6 -403 4 -679 33
-904 30 -234 60 -328 132 -417 76 -95 133 -124 250 -128 51 -2 57 0 57 18 0
14 -11 22 -44 32 -119 34 -176 144 -215 413 -43 293 -59 783 -41 1206 6 135
11 169 25 187 17 21 30 22 316 33 165 7 382 18 483 25 148 10 218 10 350 -1
191 -14 303 -5 429 35 107 34 175 33 233 -3 51 -33 295 -297 322 -349 18 -33
19 -74 20 -628 2 -675 9 -621 -87 -649 -70 -21 -141 -68 -162 -108 -92 -177
164 -324 531 -304 218 12 336 56 446 165 90 91 104 132 103 311 0 121 -3 143
-28 214 -80 234 -257 499 -620 934 -126 151 -332 364 -464 480 l-63 56 -112 4
c-274 12 -435 2 -642 -38 -72 -14 -202 -23 -460 -35 -198 -8 -407 -18 -465
-21 -146 -8 -146 -8 -140 133 10 207 5 1302 -5 1311 -20 19 -51 22 -72 7z
m2516 -2171 c72 -79 205 -267 278 -396 144 -252 198 -501 135 -624 -43 -84
-145 -150 -271 -175 -148 -29 -505 25 -488 74 2 6 18 20 35 30 l32 19 55 -32
c69 -40 95 -35 127 22 36 64 60 76 209 104 213 39 204 37 204 59 0 19 -5 20
-181 16 -159 -3 -182 -1 -197 14 -15 15 -17 60 -17 486 0 275 4 469 9 469 5 0
37 -30 70 -66z m-3102 -160 c16 -25 16 -30 0 -92 -21 -81 -82 -204 -144 -291
-125 -176 -417 -413 -727 -591 -513 -295 -1362 -540 -2007 -580 -242 -15 -443
8 -565 64 -103 47 -98 96 19 212 140 138 280 220 682 401 244 110 425 183 510
207 33 10 148 48 255 85 226 79 497 163 940 290 340 98 821 253 910 294 73 34
105 34 127 1z"/>
<path d="M19563 16555 c-137 -30 -215 -108 -215 -214 0 -64 23 -113 79 -169
141 -141 525 -215 873 -167 174 23 291 69 362 140 75 75 89 187 33 260 -55 74
-182 136 -312 155 -106 15 -745 11 -820 -5z m125 -128 c6 -6 13 -24 17 -39 12
-47 26 -50 79 -15 39 25 62 32 113 35 116 8 248 -30 353 -99 66 -45 103 -49
108 -11 2 14 -8 35 -27 58 -17 19 -31 37 -31 41 0 12 146 -5 190 -23 108 -42
127 -84 68 -144 -41 -41 -111 -72 -213 -96 -64 -15 -119 -19 -270 -19 -209 1
-266 10 -436 76 -176 68 -211 165 -84 232 36 19 118 22 133 4z"/>
<path d="M18185 15845 c-25 -24 -25 -25 -25 -226 0 -238 -2 -244 -99 -325 -89
-74 -299 -214 -386 -257 -208 -103 -320 -101 -375 9 -23 46 -25 58 -24 194 1
127 5 167 37 320 20 96 37 189 37 208 0 37 -37 82 -67 82 -44 0 -306 -182
-318 -221 -4 -10 -3 -28 0 -39 8 -25 57 -27 76 -3 29 35 112 93 133 93 21 0
22 -2 15 -69 -4 -37 -12 -86 -18 -107 -18 -72 -33 -266 -26 -343 4 -42 16
-104 27 -139 58 -188 273 -237 499 -115 97 52 266 181 357 272 86 86 118 109
134 93 6 -6 14 -46 19 -89 7 -69 47 -226 64 -253 8 -12 32 -13 39 -1 3 5 15
87 27 183 19 160 20 190 9 403 -15 312 -14 306 -45 332 -34 30 -60 29 -90 -2z"/>
<path d="M20554 15830 c-161 -42 -283 -137 -356 -276 -148 -282 -44 -610 235
-743 117 -55 170 -66 327 -65 116 1 148 5 225 28 169 51 337 160 457 298 77
87 102 144 102 229 0 54 -6 79 -32 132 -18 36 -49 80 -69 98 -51 44 -163 95
-253 115 -156 34 -493 27 -587 -12 -21 -9 -68 -36 -106 -60 -51 -33 -72 -54
-89 -89 -30 -62 -16 -75 49 -47 67 28 229 60 373 72 325 29 573 -72 557 -227
-11 -110 -130 -247 -282 -325 -264 -134 -470 -135 -670 -3 -65 44 -116 102
-147 171 -20 42 -23 65 -23 169 0 110 2 124 27 175 39 79 82 127 163 180 103
67 218 103 325 103 47 0 102 -5 123 -11 43 -12 63 -8 71 14 11 29 -14 52 -76
73 -82 28 -241 28 -344 1z"/>
<path d="M19715 15676 c-24 -18 -24 -29 5 -443 18 -247 20 -316 11 -327 -7 -8
-38 -21 -69 -28 -89 -19 -122 -65 -86 -117 16 -22 21 -23 98 -17 82 7 309 -16
481 -48 44 -9 103 -15 132 -16 44 0 55 4 72 26 40 51 23 102 -45 130 -28 12
-185 41 -319 59 -83 11 -85 14 -85 108 0 45 -7 145 -15 222 -8 77 -19 198 -25
268 -10 129 -25 179 -55 191 -29 11 -80 7 -100 -8z"/>
<path d="M16123 14520 c-627 -7 -706 -9 -728 -24 -33 -21 -33 -60 -1 -81 36
-24 1379 -33 4025 -27 2128 4 2194 5 2212 23 24 24 24 60 0 90 l-19 24 -2394
1 c-1316 0 -2709 -2 -3095 -6z"/>
<path d="M10345 13995 c-368 -60 -674 -202 -904 -420 -115 -110 -191 -210
-259 -342 -106 -206 -145 -377 -146 -628 0 -310 61 -540 234 -885 107 -213
216 -368 404 -573 93 -102 192 -189 441 -392 203 -165 229 -182 251 -164 8 6
14 17 14 24 0 7 -60 65 -132 128 -381 329 -663 694 -840 1082 -76 169 -138
400 -160 599 -26 236 43 475 200 696 69 97 222 250 320 320 142 101 424 228
627 282 118 31 325 44 462 29 182 -20 544 -118 759 -206 289 -119 951 -546
1168 -754 149 -143 315 -357 533 -687 239 -363 335 -543 426 -799 100 -281
177 -641 177 -830 0 -92 -65 -493 -94 -579 -54 -159 -184 -371 -251 -409 -13
-7 -109 -12 -280 -13 -143 -1 -543 -7 -890 -14 -678 -13 -1630 -6 -1652 12 -7
6 -13 25 -13 44 0 67 43 369 105 740 83 493 113 716 127 946 13 213 9 238 -41
238 -16 0 -33 -6 -39 -12 -5 -7 -22 -107 -36 -223 -15 -115 -40 -298 -57 -405
-60 -395 -200 -1256 -210 -1292 -7 -27 -16 -39 -32 -43 -12 -3 -198 -6 -413
-7 -369 -3 -393 -4 -413 -22 -26 -23 -27 -47 -3 -75 17 -20 26 -20 403 -23
322 -3 389 -5 404 -18 15 -13 17 -26 11 -120 -6 -87 -4 -118 13 -181 23 -91
77 -203 117 -243 76 -76 323 -160 595 -202 275 -43 780 -7 1134 82 451 113
807 281 1110 524 50 40 108 82 130 94 l40 21 3809 3 c3445 2 3811 1 3827 -14
21 -19 22 -25 60 -438 17 -186 27 -341 22 -346 -4 -4 -593 -15 -1308 -24 -715
-9 -1793 -23 -2395 -31 -602 -8 -1457 -19 -1900 -25 -443 -6 -1300 -13 -1905
-15 -605 -3 -1964 -10 -3020 -15 -1056 -6 -2234 -10 -2617 -10 l-698 0 0 -305
0 -305 6960 0 6960 0 0 -24 c0 -13 3 -38 6 -55 l7 -31 -2277 0 -2276 0 0
-3410 0 -3410 1310 0 1310 0 0 2735 0 2735 380 0 380 0 0 -2735 0 -2735 1310
0 1310 0 0 2735 0 2735 330 0 330 0 0 -2735 0 -2735 1310 0 1310 0 0 3410 0
3410 -2239 0 -2238 0 -7 31 c-3 17 -6 42 -6 55 l0 24 2245 0 c2238 0 2245 0
2245 20 0 19 7 20 228 20 125 0 284 3 355 7 l127 6 0 -3486 0 -3487 -67 -2
c-49 -1 -56 -3 -25 -5 l42 -4 0 -60 0 -59 -9660 0 -9660 0 1 -362 c0 -200 3
-357 6 -350 4 9 856 12 4213 12 2424 0 4210 4 4212 9 2 5 1243 13 2893 20
7144 28 8281 37 8410 65 62 14 300 16 2165 16 1358 0 2137 4 2215 11 347 29
709 153 979 333 420 281 697 680 799 1148 l22 103 0 2650 0 2650 -23 102
c-154 696 -698 1237 -1431 1423 -223 56 -204 55 -1046 55 -1064 0 -3400 -13
-3615 -20 -96 -3 -1104 -19 -2240 -35 -1136 -16 -2144 -31 -2241 -33 l-176 -3
8 36 c19 84 39 280 49 485 6 121 16 222 21 226 5 3 7 13 3 23 -6 16 14 17 292
14 165 -2 365 -6 447 -9 81 -3 147 -2 147 2 0 5 467 9 1037 9 l1037 0 40 26
39 26 47 -53 c45 -51 48 -53 107 -57 71 -5 115 13 138 58 46 90 -21 180 -135
180 -54 0 -71 -6 -125 -44 -21 -16 -30 -17 -44 -8 -69 49 -32 47 -686 50 -335
1 -698 1 -805 0 -498 -6 -980 4 -1023 21 -41 16 -176 14 -233 -4 -27 -9 -98
-18 -158 -22 l-109 -6 6 29 c4 16 13 135 22 264 8 129 17 249 21 265 3 17 9
208 14 425 6 307 14 454 34 660 15 146 30 299 34 340 6 67 10 76 32 87 14 6
300 55 635 108 336 53 628 101 650 106 64 17 85 35 85 74 0 46 -29 65 -99 65
-30 0 -315 -43 -634 -96 -318 -52 -598 -94 -621 -92 l-41 3 3 270 c4 282 -6
395 -35 427 -25 28 -145 25 -203 -4 -70 -37 -85 -65 -84 -161 7 -399 4 -581
-9 -594 -7 -7 -87 -29 -177 -47 -191 -40 -552 -108 -555 -104 0 2 -10 23 -21
48 -10 25 -32 59 -48 77 -23 28 -35 33 -70 33 -70 0 -80 -15 -85 -116 -2 -56
-9 -96 -18 -111 -11 -16 -13 -32 -7 -55 14 -60 5 -260 -26 -568 -16 -168 -33
-372 -36 -455 -6 -151 -19 -255 -33 -255 -21 0 -126 1149 -156 1715 -22 408
-34 575 -51 692 -22 154 -38 197 -93 254 -40 41 -53 49 -84 49 -46 0 -72 -24
-87 -82 -7 -24 -67 -241 -135 -483 -68 -242 -176 -627 -239 -855 -117 -420
-206 -684 -253 -753 -27 -39 -79 -77 -106 -77 -27 0 -79 62 -113 135 -22 45
-74 225 -149 510 -63 241 -126 463 -140 493 l-24 53 -43 -3 c-43 -3 -43 -4
-61 -58 -38 -118 -43 -181 -21 -282 16 -77 19 -132 19 -313 -1 -269 -19 -724
-42 -1026 -9 -123 -17 -294 -17 -379 l-1 -155 35 0 c31 0 35 3 42 35 11 52 57
758 68 1047 5 139 12 264 16 278 6 23 15 6 68 -112 110 -246 173 -331 282
-384 99 -47 165 -32 266 60 63 57 113 131 181 267 123 245 208 484 323 911 43
161 79 291 80 290 2 -1 12 -135 23 -297 31 -426 46 -591 101 -1095 71 -652
102 -962 98 -998 -2 -22 -11 -35 -28 -44 -20 -10 -339 -13 -1520 -13 -822 0
-1525 3 -1561 6 l-66 7 -31 146 c-58 273 -59 281 -35 301 12 9 54 22 94 29
103 17 133 52 93 109 -15 22 -19 23 -125 16 -108 -7 -108 -7 -117 17 -5 13
-44 204 -86 424 -157 814 -209 1004 -288 1060 -34 23 -85 19 -113 -10 -23 -22
-25 -32 -25 -117 0 -145 -17 -393 -50 -716 -16 -164 -32 -367 -36 -452 -3 -85
-12 -191 -20 -235 -8 -44 -19 -123 -25 -175 -6 -52 -12 -96 -13 -97 -10 -12
-842 273 -926 317 l-45 24 30 7 c17 4 111 17 210 29 316 37 382 60 439 154 26
41 30 58 30 115 0 86 -30 147 -141 287 -185 232 -478 486 -718 621 -111 62
-396 190 -437 196 -60 9 -104 -8 -117 -45 -16 -45 3 -69 85 -103 124 -51 202
-94 224 -122 24 -31 24 -24 1 -288 -6 -60 -15 -202 -21 -315 -15 -311 -19
-340 -46 -367 -13 -13 -35 -23 -49 -23 -36 0 -75 -42 -75 -79 0 -48 19 -76 66
-100 63 -30 74 -60 81 -241 7 -161 12 -182 40 -164 13 8 25 43 40 120 31 154
43 194 62 204 18 9 30 6 441 -92 475 -113 655 -157 738 -183 l83 -26 -2 -120
-2 -119 -803 2 c-748 3 -804 4 -821 20 -16 16 -16 25 -4 100 7 46 18 218 26
383 8 165 19 317 25 337 6 20 26 56 45 78 19 23 35 51 35 63 0 11 -14 43 -32
70 -37 58 -38 70 -17 308 14 164 5 265 -30 360 -44 115 -84 149 -136 115 -24
-16 -25 -21 -25 -114 0 -53 -7 -149 -16 -212 -8 -63 -19 -205 -23 -315 -5
-110 -14 -213 -21 -230 -15 -40 -30 -55 -140 -146 -52 -43 -161 -133 -242
-201 -139 -116 -286 -218 -336 -233 -19 -6 -25 -1 -42 38 -39 87 -45 166 -26
342 26 247 54 425 86 552 30 114 117 381 150 458 31 73 34 101 11 124 -13 13
-34 21 -55 21 -30 0 -50 -16 -192 -161 -161 -162 -362 -336 -466 -403 -31 -20
-59 -36 -61 -36 -2 0 -7 46 -10 103 -22 350 -149 710 -369 1044 -89 136 -415
565 -528 698 -48 55 -127 138 -176 184 -95 89 -483 406 -624 510 -455 337
-952 553 -1485 647 -128 23 -185 27 -385 30 -171 2 -260 -1 -325 -11z m12273
-2625 c2 -58 -4 -208 -13 -335 -9 -126 -15 -291 -13 -365 3 -138 -6 -464 -16
-600 -3 -41 -11 -185 -17 -318 -13 -294 -8 -282 -129 -282 -88 0 -123 11 -138
45 -13 29 -92 407 -92 441 0 31 38 49 124 59 73 9 101 33 92 78 -11 54 -22 57
-158 43 -73 -7 -77 -7 -91 16 -8 13 -56 238 -107 500 -50 262 -104 528 -119
592 -25 103 -26 116 -12 121 9 2 135 25 281 51 146 25 283 49 305 54 22 4 54
8 70 7 l30 -2 3 -105z m-6156 -432 c291 -231 465 -439 428 -509 -18 -33 -146
-54 -420 -68 -150 -7 -170 -10 -217 -34 -65 -33 -81 -34 -89 -2 -3 14 12 134
35 268 22 133 48 289 56 346 9 57 18 107 21 112 12 20 41 3 186 -113z m-1907
-278 c-82 -281 -105 -398 -112 -576 -10 -258 24 -340 168 -401 57 -25 76 -28
179 -28 102 0 120 3 160 24 97 50 382 269 523 401 49 46 78 67 81 58 3 -7 7
-76 9 -153 3 -86 16 -205 33 -309 l28 -169 -23 -18 c-22 -18 -57 -19 -870 -19
-481 0 -852 4 -860 9 -12 7 -6 19 26 58 114 137 241 374 287 535 33 115 56
274 56 387 0 109 13 146 66 189 100 81 299 222 302 213 2 -5 -22 -95 -53 -201z
m7360 -368 c27 -130 35 -186 28 -193 -12 -12 -182 -49 -225 -49 -24 0 -27 3
-23 28 3 15 25 176 50 357 25 182 48 346 52 365 5 28 13 0 43 -145 20 -99 54
-262 75 -363z m-4168 85 c61 -288 65 -319 51 -333 -14 -14 -58 -24 -210 -50
l-37 -6 5 33 c9 66 104 744 105 754 1 6 5 -10 10 -35 6 -25 40 -188 76 -363z
m4221 -415 c16 -11 24 -38 73 -266 l42 -190 -23 -18 c-19 -16 -43 -18 -191
-18 -130 0 -167 3 -164 13 3 6 9 108 14 226 7 143 14 217 22 222 6 4 9 12 5
17 -4 8 18 12 66 15 40 1 89 4 108 5 19 1 41 -2 48 -6z m-4129 -66 c9 -11 104
-427 99 -431 -2 -1 -110 0 -241 3 -237 5 -238 5 -234 26 3 11 18 97 33 191 35
214 32 210 170 220 54 3 106 7 114 9 22 3 48 -4 59 -18z m-4814 -575 c149 -5
281 -13 294 -18 24 -9 22 -12 -45 -67 -150 -125 -291 -201 -509 -276 -519
-178 -1172 -248 -1635 -175 -114 18 -172 36 -265 82 -81 40 -128 81 -158 138
-19 34 -22 55 -21 150 1 120 12 160 46 175 27 12 1876 4 2293 -9z m9085 -39
c16 -13 30 -52 55 -156 38 -152 87 -310 116 -367 49 -97 169 -91 169 9 0 21
-20 119 -45 217 -25 98 -48 203 -52 233 -8 73 4 82 114 82 l83 0 0 -31 c0 -17
11 -64 25 -105 20 -59 25 -94 25 -173 0 -55 7 -183 16 -286 8 -103 14 -188 12
-190 -2 -1 -211 -5 -465 -9 l-462 -7 -5 33 c-3 18 -19 144 -36 279 l-30 245
19 75 c11 41 22 96 26 122 l7 47 203 0 c179 0 205 -2 225 -18z"/>
<path d="M9984 12296 c-8 -22 3 -49 19 -43 6 2 12 14 12 27 0 27 -22 39 -31
16z"/>
<path d="M18885 10075 c-45 -16 -65 -38 -65 -72 0 -64 126 -74 353 -26 134 29
171 44 152 61 -18 16 -249 52 -325 52 -41 -1 -93 -7 -115 -15z"/>
<path d="M5046 6966 c-1287 -727 -2341 -1327 -2342 -1332 -2 -5 386 -324 862
-709 476 -385 871 -707 879 -716 13 -13 -81 -102 -850 -794 -475 -429 -861
-783 -857 -786 16 -15 4644 -2530 4648 -2527 2 3 3 1846 2 4096 l-3 4091
-2339 -1323z"/>
<path d="M7560 6865 c0 -754 1 -795 18 -795 66 0 5321 130 5455 135 l167 6 0
-1890 0 -1891 -840 0 -840 0 0 295 c0 190 4 295 10 295 6 0 10 87 10 240 0
153 -4 240 -10 240 -7 0 -10 382 -10 1125 l0 1125 -1355 0 -1355 0 0 -2455 0
-2455 3590 0 3590 0 0 2726 0 2725 -562 685 -561 684 -3654 0 -3653 0 0 -795z"/>
<path d="M1275 4939 c-655 -341 -1209 -630 -1233 -642 l-42 -22 1211 -789
c666 -433 1216 -785 1222 -783 7 3 194 169 417 368 223 200 556 492 740 649
184 156 383 326 443 377 l108 93 -418 333 c-230 183 -606 491 -836 685 -229
194 -418 352 -420 351 -1 0 -537 -279 -1192 -620z"/>
</g>
</svg>
